<?xml version="1.0" encoding="utf-8"?>
<!-- Generator: Adobe Illustrator 22.1.0, SVG Export Plug-In . SVG Version: 6.00 Build 0)  -->
<svg version="1.1" id="图层_1" xmlns="http://www.w3.org/2000/svg" xmlns:xlink="http://www.w3.org/1999/xlink" x="0px" y="0px"
	 viewBox="0 0 499 438" style="enable-background:new 0 0 499 438;" xml:space="preserve">
<style type="text/css">
	.st0{fill:none;stroke:#49B78F;stroke-width:10;stroke-miterlimit:10;}
</style>
<g id="_x23_49bda6ff">
	<path class="st0" d="M71.5,44.6c0.6-0.1,1.8-0.2,2.5-0.2c95.7,0,191.4,0,287.1,0c3,0.1,6.5-0.6,8.8,1.9c1.6,1.4,1.4,3.8,1.5,5.8
		c-0.1,102,0,204,0.1,306c0.5,10.9-6.2,21.8-16.3,26.1c-4.7,2.2-10,2.3-15.1,2.3c-72.3-0.1-144.7,0-217,0
		c-13.9-0.1-26.4-12.4-26.4-26.3c-0.1-86-0.2-172-0.1-258c0.3-5.7-0.8-11.4-3-16.6c-4.7-12.7-14-23-24.1-31.7
		C65.7,51.3,67.5,45.4,71.5,44.6"/>
</g>
</svg>
